# xmcd
#
# Track frame offsets:
#	183
#	13578
#	25593
#	38765
#	50305
#	62945
#	72150
#	83283
#	94018
#	105705
#	118600
#	130388
#	143500
#	158698
#
# Disc length: 2297
#
# Revision: 1
# Processed by: cddbd v1.5.1PL0 Copyright (c) Steve Scherf et al.
# Submitted via: CDex 1.50beta10
# Normalized: r0:TDELIM( - )
#
DISCID=a708f70e
DTITLE=Various Artist - King Of The Road - Country Hits Of The 60s
DYEAR=1900
DGENRE=Country
TTITLE0=It's Four In The Morning - Faron Young
TTITLE1=Eddy Arnold - Make The World Go Away
TTITLE2=Johnny Tillotson - Send Me The Pillow That You Dream On
TTITLE3=Don Gibson - Sea Of Heartbreak
TTITLE4=Patsy Cline - I Fall To Pieces
TTITLE5=Jim Reeves - I Won't Forget You
TTITLE6=Roger Miller - King Of The Road
TTITLE7=Leroy Van Dyke - Walk On By
TTITLE8=Jack Greene - There Goes My Everything
TTITLE9=Conway Twitty - The Next In Line
TTITLE10=Jerry Lee Lewis - What Made Milwaukee Famous
TTITLE11=Bobby Bare - Detroit City
TTITLE12=Jeanne Pruett - Satin Sheets
TTITLE13=Loretta Lynn - Coal Miners Daughter
EXTD=
EXTT0=
EXTT1=
EXTT2=
EXTT3=
EXTT4=
EXTT5=
EXTT6=
EXTT7=
EXTT8=
EXTT9=
EXTT10=
EXTT11=
EXTT12=
EXTT13=
PLAYORDER=
